<svg id="Layer_1" data-name="Layer 1" xmlns="http://www.w3.org/2000/svg" viewBox="0 0 988.05 1012.03"><defs><style>.cls-1{fill:#1aaee4;}.cls-1,.cls-2{fill-rule:evenodd;}.cls-2{fill:#1a7cc1;}.cls-3{font-size:279.9px;fill:#212121;font-family:Rubik-ExtraBold, Rubik;font-weight:800;}.cls-4,.cls-5,.cls-6{font-family:Rubik-Regular, Rubik;font-weight:400;}.cls-5{letter-spacing:-0.01em;}.cls-6{letter-spacing:-0.02em;}</style></defs><title>Vertical - Dark Text</title><path class="cls-1" d="M518.89,766.15Q565.57,682,571.11,597.33q7.18-110.52-55.36-223.62,68.09-123.07,218.83-249.09Q806.35,64.47,897,3.77V382.56q0,159.22-112.37,271.22Q674.44,764.12,518.89,766.15Z" transform="translate(-5.17 -3.77)"/><path class="cls-1" d="M515.76,373.71q62.55,113.1,55.35,223.62Q565.59,682,518.89,766.15h-6.27q-46.31-83.4-52-167.71Q452.84,487.36,515.76,373.71Z" transform="translate(-5.17 -3.77)"/><path class="cls-2" d="M478,766.15Q431.32,682,425.79,597.33q-7.2-110.52,55.35-223.62Q413.06,250.64,262.32,124.62,190.55,64.47,100,3.77V382.56q0,159.22,112.37,271.22Q322.47,764.12,478,766.15Z" transform="translate(-5.17 -3.77)"/><text class="cls-3" transform="translate(0 938.14)">u<tspan class="cls-4" x="183.9" y="0">p</tspan><tspan class="cls-5" x="350.71" y="0">ow</tspan><tspan class="cls-4" x="728.02" y="0">e</tspan><tspan class="cls-6" x="884.77" y="0">r</tspan></text></svg>